<svg xmlns="http://www.w3.org/2000/svg" xmlns:xlink="http://www.w3.org/1999/xlink" width="45.1" height="60.242" viewBox="0 0 45.1 60.242"><defs><style>.a,.b{fill:#1b2f3f;}.a{font-size:7.79px;font-family:FuturaBT-Medium, Futura Md BT;font-weight:500;}.b{font-size:12.34px;font-family:MyriadPro-Regular, Myriad Pro;}.c{clip-path:url(#a);}.d{fill:#ffc13b;}</style><clipPath id="a"><rect width="45.1" height="35.61" transform="translate(374.33 490.07)"/></clipPath></defs><g transform="translate(-374.33 -484.871)"><text class="a" transform="translate(378.41 535.123)"><tspan x="0" y="0">Unlocking</tspan></text><text class="a" transform="translate(380.78 543.113)"><tspan x="0" y="0">Potential</tspan></text><text class="b" transform="translate(404.577 493.871)"><tspan x="0" y="0">th</tspan></text><g class="c"><path class="d" d="M408.17,495.76a7.082,7.082,0,0,1-2.84-.6v14.41c0,3.29-.76,5.77-2.28,7.42s-3.79,2.48-6.8,2.48q-4.545,0-6.82-2.48c-1.52-1.65-2.28-4.13-2.28-7.42V487.4h-5.86v22.72c0,4.96,1.24,8.65,3.72,11.1s6.23,3.67,11.25,3.67,8.78-1.23,11.27-3.68,3.74-6.15,3.74-11.09V495.04A6.965,6.965,0,0,1,408.17,495.76Z"/></g></g></svg>